HIERARCHY
ROOT Hips
{
	OFFSET 0.00000 0.00000 0.00000
	CHANNELS 6 Xposition Yposition Zposition Zrotation Yrotation Xrotation 
	JOINT LHipJoint
	{
		OFFSET 0 0 0
		CHANNELS 3 Zrotation Yrotation Xrotation
		JOINT LeftUpLeg
		{
			OFFSET 1.64577 -1.42384 0.94276
			CHANNELS 3 Zrotation Yrotation Xrotation
			JOINT LeftLeg
			{
				OFFSET 2.11538 -5.81197 0.00000
				CHANNELS 3 Zrotation Yrotation Xrotation
				JOINT LeftFoot
				{
					OFFSET 2.36541 -6.49893 0.00000
					CHANNELS 3 Zrotation Yrotation Xrotation
					JOINT LeftToeBase
					{
						OFFSET 0.17759 -0.48793 1.73865
						CHANNELS 3 Zrotation Yrotation Xrotation
						End Site
						{
							OFFSET 0.00000 -0.00000 0.91205
						}
					}
				}
			}
		}
	}
	JOINT RHipJoint
	{
		OFFSET 0 0 0
		CHANNELS 3 Zrotation Yrotation Xrotation
		JOINT RightUpLeg
		{
			OFFSET -1.43750 -1.42384 0.94276
			CHANNELS 3 Zrotation Yrotation Xrotation
			JOINT RightLeg
			{
				OFFSET -2.10480 -5.78291 0.00000
				CHANNELS 3 Zrotation Yrotation Xrotation
				JOINT RightFoot
				{
					OFFSET -2.34880 -6.45329 0.00000
					CHANNELS 3 Zrotation Yrotation Xrotation
					JOINT RightToeBase
					{
						OFFSET -0.22842 -0.62757 1.80469
						CHANNELS 3 Zrotation Yrotation Xrotation
						End Site
						{
							OFFSET -0.00000 -0.00000 0.95886
						}
					}
				}
			}
		}
	}
	JOINT LowerBack
	{
		OFFSET 0 0 0
		CHANNELS 3 Zrotation Yrotation Xrotation
		JOINT Spine
		{
			OFFSET 0.06217 1.93758 -0.49272
			CHANNELS 3 Zrotation Yrotation Xrotation
			JOINT Spine1
			{
				OFFSET -0.03114 2.03621 -0.05830
				CHANNELS 3 Zrotation Yrotation Xrotation
				JOINT Neck
				{
					OFFSET 0 0 0
					CHANNELS 3 Zrotation Yrotation Xrotation
					JOINT Neck1
					{
						OFFSET 0.04421 1.41010 0.26562
						CHANNELS 3 Zrotation Yrotation Xrotation
						JOINT Head
						{
							OFFSET -0.13407 1.43847 0.06181
							CHANNELS 3 Zrotation Yrotation Xrotation
							End Site
							{
								OFFSET -0.04980 1.45844 -0.00689
							}
						}
					}
				}
				JOINT LeftShoulder
				{
					OFFSET 0 0 0
					CHANNELS 3 Zrotation Yrotation Xrotation
					JOINT LeftArm
					{
						OFFSET 2.18382 1.47753 -0.35694
						CHANNELS 3 Zrotation Yrotation Xrotation
						JOINT LeftForeArm
						{
							OFFSET 5.05460 -0.00000 0.00000
							CHANNELS 3 Zrotation Yrotation Xrotation
							JOINT LeftHand
							{
								OFFSET 3.39013 -0.00000 0.00000
								CHANNELS 3 Zrotation Yrotation Xrotation
								JOINT LeftFingerBase
								{
									OFFSET 0 0 0
									CHANNELS 3 Zrotation Yrotation Xrotation
									JOINT LeftHandIndex1
									{
										OFFSET 0.57242 -0.00000 -0.00000
										CHANNELS 3 Zrotation Yrotation Xrotation
										End Site
										{
											OFFSET 0.46150 -0.00000 -0.00000
										}
									}
								}
								JOINT LThumb
								{
									OFFSET 0 0 0
									CHANNELS 3 Zrotation Yrotation Xrotation
									End Site
									{
										OFFSET 0.46855 -0.00000 0.46855
									}
								}
							}
						}
					}
				}
				JOINT RightShoulder
				{
					OFFSET 0 0 0
					CHANNELS 3 Zrotation Yrotation Xrotation
					JOINT RightArm
					{
						OFFSET -2.06033 1.72839 -0.47437
						CHANNELS 3 Zrotation Yrotation Xrotation
						JOINT RightForeArm
						{
							OFFSET -5.07010 -0.00000 0.00000
							CHANNELS 3 Zrotation Yrotation Xrotation
							JOINT RightHand
							{
								OFFSET -3.14957 -0.00000 -0.00000
								CHANNELS 3 Zrotation Yrotation Xrotation
								JOINT RightFingerBase
								{
									OFFSET 0 0 0
									CHANNELS 3 Zrotation Yrotation Xrotation
									JOINT RightHandIndex1
									{
										OFFSET -0.71819 -0.00000 -0.00000
										CHANNELS 3 Zrotation Yrotation Xrotation
										End Site
										{
											OFFSET -0.57902 -0.00000 -0.00000
										}
									}
								}
								JOINT RThumb
								{
									OFFSET 0 0 0
									CHANNELS 3 Zrotation Yrotation Xrotation
									End Site
									{
										OFFSET -0.58786 -0.00000 0.58786
									}
								}
							}
						}
					}
				}
			}
		}
	}
}
MOTION
Frames: 10
Frame Time: .0083333
14.0465 14.8321 -2.0371 -176.4950 -49.2278 -544.5130 0.0000 0.0000 0.0000 -27.3644 -12.4550 -2.4138 4.4715 12.7626 38.4863 2.1303 -0.1203 -27.6103 0.0196 -0.9042 -2.4853 0.0000 0.0000 0.0000 22.7821 12.2570 -20.0421 -12.4395 -18.5703 67.3752 -0.0387 -14.9940 -21.6908 -2.1317 9.1351 -26.2189 -3.6215 1.7972 11.9877 -6.5969 1.0975 7.3272 -5.0014 0.1988 1.0244 10.8540 8.4708 2.4880 -9.8380 11.5382 -1.0755 -4.5890 5.8216 0.4889 0.0000 0.0000 0.0000 -71.4134 3.9785 -24.9390 13.3051 -21.7326 -2.5651 -0.0000 0.0000 -10.1081 17.6463 22.0952 6.8233 -7.1250 0.0000 -0.0000 -11.5677 52.6860 -2.2118 0.0000 0.0000 0.0000 18.9570 -7.4709 -26.3192 -29.4487 40.4161 -11.0504 0.0000 -0.0000 -42.2312 -38.8088 -3.7866 3.0404 7.1250 -0.0000 -0.0000 -10.0629 -34.6937 -2.5793
13.7055 14.8997 -2.3609 -176.1530 -50.0191 -544.7970 0.0000 0.0000 0.0000 -27.5476 -11.9959 0.2337 4.2110 12.4361 37.2926 1.9869 0.1902 -26.7581 0.0309 -1.1349 -3.1200 0.0000 0.0000 0.0000 21.9706 14.1753 -21.1458 -11.2759 -18.0675 63.6743 -0.1388 -14.9292 -22.6012 -2.2666 9.4005 -27.0565 -3.6776 1.6869 11.9542 -6.3897 0.9743 7.3715 -4.7334 0.1392 1.0751 10.9944 8.5096 2.7773 -10.2531 11.6177 -1.0933 -4.7451 5.8705 0.4793 0.0000 -0.0000 0.0000 -71.9632 3.6819 -23.9222 13.4209 -21.9008 -2.6082 -0.0000 0.0000 -10.7683 17.6481 21.3815 6.6160 -7.1250 0.0000 -0.0000 -11.2842 51.9681 -1.9565 0.0000 -0.0000 0.0000 18.9710 -7.4885 -26.5681 -29.5076 40.4676 -11.0887 0.0000 -0.0000 -42.5642 -39.3685 -3.9121 3.2040 7.1250 -0.0000 -0.0000 -10.5406 -34.8775 -2.6574
13.3557 14.9856 -2.6885 -175.7880 -50.8604 -545.0680 0.0000 0.0000 0.0000 -27.5817 -11.4045 2.5700 4.0053 12.1674 36.3267 1.7468 0.5874 -25.2220 0.0490 -1.4285 -3.9287 0.0000 0.0000 0.0000 21.2082 15.9084 -21.6777 -9.8402 -17.3190 58.9528 -0.2216 -15.0046 -23.4793 -2.4049 9.6630 -27.8921 -3.7003 1.5817 11.8302 -6.1906 0.8698 7.4179 -4.4944 0.0907 1.1799 11.1236 8.5293 3.0230 -10.5732 11.6708 -1.0422 -4.8686 5.9049 0.4878 -0.0000 -0.0000 0.0000 -72.4493 3.3509 -22.9122 13.4958 -22.0094 -2.6362 -0.0000 0.0000 -11.3372 17.6572 20.6074 6.3925 -7.1250 0.0000 -0.0000 -10.9847 51.1885 -1.6919 -0.0000 -0.0000 0.0000 19.0882 -7.5030 -26.8667 -29.6314 40.5753 -11.1691 0.0000 -0.0000 -42.8521 -39.8606 -4.0251 3.3542 7.1250 -0.0000 -0.0000 -10.9626 -35.0444 -2.7217
13.0000 15.0740 -3.0173 -175.3000 -51.7357 -545.3950 0.0000 0.0000 0.0000 -27.3306 -10.6500 4.3081 3.9324 12.0700 35.9799 1.4455 0.8704 -23.0599 0.1003 -2.0423 -5.6227 0.0000 0.0000 0.0000 20.5738 17.5280 -21.6937 -8.2896 -16.3282 53.5991 -0.3028 -15.0442 -24.2589 -2.5776 9.9777 -28.9045 -3.5988 1.4798 11.6166 -5.9997 0.7913 7.4600 -4.3366 0.0609 1.3331 11.2379 8.5269 3.2088 -10.7725 11.6922 -0.9294 -4.9505 5.9210 0.5124 -0.0000 0.0000 0.0000 -72.8451 2.9665 -21.9905 13.5128 -22.0339 -2.6426 -0.0000 0.0000 -11.7570 17.6566 19.7864 6.1500 -7.1250 0.0000 -0.0000 -10.6935 50.3580 -1.4263 -0.0000 0.0000 0.0000 19.3018 -7.5373 -27.2096 -29.8229 40.7411 -11.2938 0.0000 -0.0000 -43.0804 -40.2580 -4.1066 3.4703 7.1250 -0.0000 -0.0000 -11.3033 -35.1682 -2.7744
12.6404 15.1510 -3.3456 -174.6130 -52.6421 -545.8890 0.0000 0.0000 0.0000 -26.7317 -9.7521 5.2919 4.0662 12.2480 36.6148 1.1337 0.8510 -20.4478 0.1857 -2.7758 -7.6551 0.0000 0.0000 0.0000 20.1298 19.0797 -21.2134 -6.7806 -15.1443 48.0395 -0.3601 -15.0513 -24.7654 -2.8175 10.3936 -30.2610 -3.3103 1.3778 11.3301 -5.8074 0.7365 7.5263 -4.2857 0.0501 1.5557 11.3262 8.5072 3.3220 -10.8649 11.6852 -0.7830 -4.9933 5.9203 0.5472 -0.0000 -0.0000 0.0000 -73.1639 2.4989 -21.2484 13.4706 -21.9729 -2.6268 -0.0000 0.0000 -12.0035 17.6493 18.9716 5.9054 -7.1250 0.0000 -0.0000 -10.4263 49.5305 -1.1761 -0.0000 -0.0000 0.0000 19.5510 -7.5798 -27.6043 -30.0662 40.9501 -11.4530 0.0000 -0.0000 -43.2545 -40.5623 -4.1801 3.5702 7.1250 -0.0000 -0.0000 -11.5662 -35.2779 -2.8096
12.2795 15.2050 -3.6720 -173.9310 -53.5872 -546.4730 0.0000 0.0000 0.0000 -25.9679 -8.7894 5.5302 4.4614 12.7503 38.4407 0.8476 0.5278 -17.5974 0.3139 -3.6019 -9.9592 0.0000 0.0000 0.0000 19.7721 20.5797 -20.2317 -5.4523 -13.8758 42.7421 -0.4268 -14.8467 -25.0906 -3.0376 10.7557 -31.4604 -2.9791 1.2878 11.0492 -5.6280 0.6948 7.6292 -4.2754 0.0461 1.8157 11.3637 8.4789 3.3730 -10.8750 11.6609 -0.6047 -5.0006 5.9089 0.5914 0.0000 -0.0000 0.0000 -73.4574 1.9789 -20.7284 13.3913 -21.8579 -2.5972 -0.0000 0.0000 -12.1305 17.6470 18.2221 5.6809 -7.1250 0.0000 -0.0000 -10.1892 48.7684 -0.9561 0.0000 -0.0000 0.0000 19.7133 -7.6087 -28.0087 -30.3143 41.1612 -11.6159 0.0000 -0.0000 -43.3891 -40.8078 -4.2850 3.6912 7.1250 -0.0000 -0.0000 -11.7851 -35.4259 -2.8214
11.9192 15.2306 -3.9955 -173.3000 -54.5774 -547.1770 0.0000 0.0000 0.0000 -25.1316 -7.8774 5.1257 5.1423 13.5423 41.4339 0.6019 0.0107 -14.6651 0.4449 -4.2796 -11.8647 0.0000 0.0000 0.0000 19.5448 21.9155 -18.8015 -4.3956 -12.6690 38.1419 -0.4498 -14.6832 -25.0950 -3.2390 11.0723 -32.5240 -2.6475 1.2120 10.8519 -5.4549 0.6581 7.7689 -4.2750 0.0427 2.0698 11.3539 8.4464 3.3719 -10.8278 11.6266 -0.3792 -4.9803 5.8906 0.6504 -0.0000 0.0000 0.0000 -73.7498 1.4563 -20.3912 13.2980 -21.7223 -2.5625 -0.0000 0.0000 -12.2405 17.6794 17.5816 5.4996 -7.1250 0.0000 -0.0000 -9.9635 48.1210 -0.7743 -0.0000 0.0000 0.0000 19.6797 -7.6139 -28.3860 -30.5033 41.3209 -11.7405 0.0000 -0.0000 -43.5029 -41.0235 -4.4166 3.8330 7.1250 -0.0000 -0.0000 -11.9836 -35.6076 -2.8164
11.5621 15.2244 -4.3147 -172.6860 -55.6086 -548.0790 0.0000 0.0000 0.0000 -24.2667 -7.0714 4.2501 6.1093 14.5334 45.4187 0.4027 -0.4195 -11.8478 0.5480 -4.7426 -13.1759 0.0000 0.0000 0.0000 19.5805 22.7547 -17.0416 -3.6586 -11.6917 34.6498 -0.3976 -14.6141 -24.5720 -3.3567 11.2512 -33.1318 -2.3197 1.1458 10.8190 -5.2719 0.6162 7.9288 -4.2641 0.0343 2.2556 11.3211 8.4136 3.3507 -10.7594 11.5911 -0.0979 -4.9477 5.8707 0.7264 0.0000 -0.0000 0.0000 -74.0545 1.0094 -20.1761 13.2143 -21.6004 -2.5316 -0.0000 0.0000 -12.4022 17.7403 17.0393 5.3555 -7.1250 0.0000 -0.0000 -9.7477 47.5764 -0.6253 0.0000 -0.0000 0.0000 19.3701 -7.5824 -28.6879 -30.5869 41.3912 -11.7958 0.0000 -0.0000 -43.5957 -41.2169 -4.5508 3.9757 7.1250 -0.0000 -0.0000 -12.1646 -35.7923 -2.8047
11.2093 15.1928 -4.6292 -172.0820 -56.6821 -549.1800 0.0000 0.0000 0.0000 -23.4276 -6.4313 3.0472 7.3363 15.6087 50.1351 0.2610 -0.4916 -9.4870 0.6140 -5.0152 -13.9519 0.0000 0.0000 0.0000 19.9434 22.7241 -15.2282 -3.2391 -11.0725 32.5246 -0.2778 -14.8036 -23.7421 -3.5138 11.4837 -33.9292 -2.0122 1.0896 10.9857 -5.0782 0.5689 8.0800 -4.2322 0.0208 2.3230 11.3052 8.3721 3.3436 -10.7008 11.5478 0.2384 -4.9204 5.8470 0.8171 0.0000 -0.0000 0.0000 -74.3667 0.7088 -19.9928 13.1649 -21.5284 -2.5135 -0.0000 0.0000 -12.6142 17.7958 16.5389 5.2208 -7.1250 0.0000 -0.0000 -9.5551 47.0726 -0.4930 0.0000 -0.0000 0.0000 18.7873 -7.5229 -28.8962 -30.5575 41.3665 -11.7763 0.0000 -0.0000 -43.6300 -41.4098 -4.6745 4.1109 7.1250 -0.0000 -0.0000 -12.3445 -35.9641 -2.7949
10.8618 15.1380 -4.9386 -171.3980 -57.7851 -550.5220 0.0000 0.0000 0.0000 -22.6082 -6.0228 1.5935 8.7754 16.6610 55.3102 0.1768 -0.0269 -7.9309 0.6257 -5.0616 -14.0844 0.0000 0.0000 0.0000 20.6506 21.7071 -13.5550 -3.0980 -10.8521 31.7826 -0.1541 -14.9394 -22.7620 -3.6705 11.7086 -34.7087 -1.6993 1.0391 11.3654 -4.8648 0.5172 8.1932 -4.1834 0.0039 2.2345 11.3266 8.3172 3.3910 -10.6656 11.4940 0.6143 -4.9080 5.8192 0.9130 0.0000 -0.0000 0.0000 -74.6870 0.6170 -19.7491 13.1724 -21.5394 -2.5162 -0.0000 0.0000 -12.8463 17.8010 16.1133 5.0923 -7.1250 0.0000 -0.0000 -9.4343 46.6378 -0.3847 0.0000 -0.0000 0.0000 17.9930 -7.4221 -29.0208 -30.4264 41.2561 -11.6898 0.0000 -0.0000 -43.5690 -41.6085 -4.7384 4.1959 7.1250 -0.0000 -0.0000 -12.5209 -36.0593 -2.8067
